<svg width="132" height="78" viewBox="0 0 132 78" fill="none" xmlns="http://www.w3.org/2000/svg">
<g filter="url(#filter0_d_1_9)">
<g clip-path="url(#clip0_1_9)">
<path d="M26.1195 20.5254L8.49829 2.80795C6.71004 1.01007 4.28425 -5.50259e-06 1.75481 -5.50259e-06H-13.5473C-16.0804 -0.00283839 -18.5105 1.00747 -20.3014 2.80795L-29.1133 11.6667L-37.9489 20.5254C-39.7376 22.3256 -40.7408 24.7666 -40.7376 27.3106V42.6894C-40.7408 45.2334 -39.7376 47.6744 -37.9489 49.4746L-20.3251 67.192C-18.5357 68.9898 -16.1092 70 -13.579 70H1.72314C4.25881 70.0041 6.69184 68.9937 8.4851 67.192L26.1274 49.4746C27.9149 47.6738 28.9171 45.233 28.9135 42.6894V27.3106C28.915 24.7659 27.9099 22.3249 26.1195 20.5254Z" fill="black"/>
<path d="M-5.94398 16.4182C-16.1552 16.4183 -24.4329 24.7376 -24.4329 35C-24.4329 45.2625 -16.155 53.5818 -5.94375 53.5818C4.26755 53.5818 12.5454 45.2625 12.5454 35.0005C12.5443 24.7383 4.26697 16.4195 -5.94398 16.4182Z" fill="black" stroke="black" stroke-width="31"/>
<path d="M47.619 23.2299H40.5853V46.6295H47.5662C55.0247 46.6295 59.7156 42.1511 59.7156 34.9284C59.7156 27.7057 55.0933 23.2299 47.619 23.2299ZM47.5662 43.4769H44.366V26.3852H47.5319C52.761 26.3852 55.7106 29.567 55.7106 34.9284C55.7106 40.2898 52.8085 43.4849 47.5662 43.4849V43.4769Z" fill="black"/>
<path d="M68.3032 29.3311C63.95 29.3311 61.3197 31.7386 61.1798 35.0318H64.8576C64.9605 33.1307 66.1768 32.078 68.2373 32.078C70.3743 32.078 71.6671 33.2659 71.6671 35.525V36.0367L67.3904 36.4663C63.6493 36.8746 60.61 38.1633 60.61 41.6527C60.61 44.7443 63.0715 46.9557 66.5963 46.9557C69.1264 46.9557 71.018 45.6299 71.7277 43.2886H71.8254V46.6163H75.3712V36.217C75.3237 31.6405 72.5957 29.3311 68.3032 29.3311ZM71.646 39.2159C71.646 42.4402 70.1289 44.2379 67.4959 44.2379C65.8734 44.2379 64.4592 43.3205 64.4592 41.7269C64.4592 40.1333 65.7415 39.2849 67.9655 39.0489L71.646 38.6193V39.2159Z" fill="black"/>
<path d="M85.7661 29.3311C83.3046 29.3311 81.5449 30.6223 80.8404 32.9928H80.7745V29.6705H77.1969V46.6402H80.8747V36.453C80.8747 33.6716 81.9881 32.1125 84.2491 32.1125C86.5101 32.1125 87.634 33.539 87.634 36.689V46.6295H91.3013V35.6072C91.3013 31.8765 89.4809 29.3311 85.7661 29.3311Z" fill="black"/>
<path d="M101.037 44.2193C98.2374 44.2193 96.6834 41.7083 96.6834 38.15C96.6834 34.5917 98.1345 32.078 100.868 32.078C102.86 32.078 104.239 33.3322 104.646 35.525H108.339C107.698 31.5239 104.73 29.3523 100.778 29.3523C95.8523 29.3523 92.7814 33.5947 92.7814 38.1712C92.7814 42.8511 95.9473 46.9902 100.907 46.9902C104.865 46.9902 107.859 44.7523 108.5 40.7511H104.759C104.411 42.8989 102.992 44.2193 101.037 44.2193Z" fill="black"/>
<path d="M117.523 29.3311C112.495 29.3311 109.624 33.4701 109.624 38.15C109.624 42.8299 112.563 46.9689 117.587 46.9689C121.705 46.9689 124.338 44.7311 125.045 41.3822H121.367C120.961 42.7398 120.017 44.2326 117.827 44.2326C115.26 44.2326 113.474 42.4349 113.302 39.3511H125.362C125.874 33.4356 122.547 29.3311 117.523 29.3311ZM113.336 36.5909C113.571 33.8439 115.046 32.0833 117.523 32.0833C120.001 32.0833 121.436 33.8492 121.671 36.5909H113.336Z" fill="black"/>
<g clip-path="url(#clip1_1_9)">
<path d="M28.1195 20.5254L10.4983 2.80795C8.71004 1.01007 6.28425 -5.50259e-06 3.75481 -5.50259e-06H-11.5473C-14.0804 -0.00283839 -16.5105 1.00747 -18.3014 2.80795L-27.1133 11.6667L-35.9489 20.5254C-37.7376 22.3256 -38.7408 24.7666 -38.7376 27.3106V42.6894C-38.7408 45.2334 -37.7376 47.6744 -35.9489 49.4746L-18.3251 67.192C-16.5357 68.9898 -14.1092 70 -11.579 70H3.72314C6.25881 70.0041 8.69184 68.9937 10.4851 67.192L28.1274 49.4746C29.9149 47.6738 30.9171 45.233 30.9135 42.6894V27.3106C30.915 24.7659 29.9099 22.3249 28.1195 20.5254Z" fill="black"/>
<path d="M-3.94398 16.4182C-14.1552 16.4183 -22.4329 24.7376 -22.4329 35C-22.4329 45.2625 -14.155 53.5818 -3.94375 53.5818C6.26755 53.5818 14.5454 45.2625 14.5454 35.0005C14.5443 24.7383 6.26697 16.4195 -3.94398 16.4182Z" fill="black" stroke="black" stroke-width="31"/>
<path d="M49.619 23.2299H42.5853V46.6295H49.5662C57.0247 46.6295 61.7156 42.1511 61.7156 34.9284C61.7156 27.7057 57.0933 23.2299 49.619 23.2299ZM49.5662 43.4769H46.366V26.3852H49.5319C54.761 26.3852 57.7106 29.567 57.7106 34.9284C57.7106 40.2898 54.8085 43.4849 49.5662 43.4849V43.4769Z" fill="black"/>
<path d="M70.3032 29.3311C65.95 29.3311 63.3197 31.7386 63.1798 35.0318H66.8576C66.9605 33.1307 68.1768 32.078 70.2373 32.078C72.3743 32.078 73.6671 33.2659 73.6671 35.525V36.0367L69.3904 36.4663C65.6493 36.8746 62.61 38.1633 62.61 41.6527C62.61 44.7443 65.0715 46.9557 68.5963 46.9557C71.1264 46.9557 73.018 45.6299 73.7277 43.2886H73.8254V46.6163H77.3712V36.217C77.3237 31.6405 74.5957 29.3311 70.3032 29.3311ZM73.646 39.2159C73.646 42.4402 72.1289 44.2379 69.4959 44.2379C67.8734 44.2379 66.4592 43.3205 66.4592 41.7269C66.4592 40.1333 67.7415 39.2849 69.9655 39.0489L73.646 38.6193V39.2159Z" fill="black"/>
<path d="M87.7661 29.3311C85.3046 29.3311 83.5449 30.6223 82.8404 32.9928H82.7745V29.6705H79.1969V46.6402H82.8747V36.453C82.8747 33.6716 83.9881 32.1125 86.2491 32.1125C88.5101 32.1125 89.634 33.539 89.634 36.689V46.6295H93.3013V35.6072C93.3013 31.8765 91.4809 29.3311 87.7661 29.3311Z" fill="black"/>
<path d="M103.037 44.2193C100.237 44.2193 98.6834 41.7083 98.6834 38.15C98.6834 34.5917 100.134 32.078 102.868 32.078C104.86 32.078 106.239 33.3322 106.646 35.525H110.339C109.698 31.5239 106.73 29.3523 102.778 29.3523C97.8523 29.3523 94.7814 33.5947 94.7814 38.1712C94.7814 42.8511 97.9473 46.9902 102.907 46.9902C106.865 46.9902 109.859 44.7523 110.5 40.7511H106.759C106.411 42.8989 104.992 44.2193 103.037 44.2193Z" fill="black"/>
<path d="M119.523 29.3311C114.495 29.3311 111.624 33.4701 111.624 38.15C111.624 42.8299 114.563 46.9689 119.587 46.9689C123.705 46.9689 126.338 44.7311 127.045 41.3822H123.367C122.961 42.7398 122.017 44.2326 119.827 44.2326C117.26 44.2326 115.474 42.4349 115.302 39.3511H127.362C127.874 33.4356 124.547 29.3311 119.523 29.3311ZM115.336 36.5909C115.571 33.8439 117.046 32.0833 119.523 32.0833C122.001 32.0833 123.436 33.8492 123.671 36.5909H115.336Z" fill="black"/>
</g>
</g>
<rect x="4.5" y="0.5" width="123" height="69" stroke="black" shape-rendering="crispEdges"/>
</g>
<defs>
<filter id="filter0_d_1_9" x="0" y="0" width="132" height="78" filterUnits="userSpaceOnUse" color-interpolation-filters="sRGB">
<feFlood flood-opacity="0" result="BackgroundImageFix"/>
<feColorMatrix in="SourceAlpha" type="matrix" values="0 0 0 0 0 0 0 0 0 0 0 0 0 0 0 0 0 0 127 0" result="hardAlpha"/>
<feOffset dy="4"/>
<feGaussianBlur stdDeviation="2"/>
<feComposite in2="hardAlpha" operator="out"/>
<feColorMatrix type="matrix" values="0 0 0 0 0 0 0 0 0 0 0 0 0 0 0 0 0 0 0.25 0"/>
<feBlend mode="normal" in2="BackgroundImageFix" result="effect1_dropShadow_1_9"/>
<feBlend mode="normal" in="SourceGraphic" in2="effect1_dropShadow_1_9" result="shape"/>
</filter>
<clipPath id="clip0_1_9">
<rect x="4" width="124" height="70" fill="white"/>
</clipPath>
<clipPath id="clip1_1_9">
<rect width="124" height="70" fill="white" transform="translate(6)"/>
</clipPath>
</defs>
</svg>
